<?xml version="1.0"?>
<svg xmlns="http://www.w3.org/2000/svg" xmlns:xlink="http://www.w3.org/1999/xlink" version="1.1" id="Capa_1" x="0px" y="0px" viewBox="0 0 512 512" style="enable-background:new 0 0 512 512;" xml:space="preserve" width="512px" height="512px" class=""><g><circle style="fill:#DA0A0A" cx="256" cy="256" r="256" data-original="#330500" class="active-path" data-old_color="#da0a0a"/><path style="fill:#FFFFFF" d="M488.722,312.455c-26.843-28.129-90.488-35.6-148.887-33.123  c-15.402-17.345-31.326-36.906-31.535-37.177l-1.442-1.599c-16.739-16.729-33.155-37.909-47.386-60.729  c24.91-73.582,32.966-128.042,13.396-157.737c-5.757-8.735-16.248-18.934-34.523-21.483C235.554,0.209,232.576,0,229.41,0  c-9.477,0-18.004,1.808-25.36,5.277c-11.097,5.235-19.56,14.263-24.68,26.624c-14.743,35.579,2.957,96.413,34.367,152.503  c-7.304,20.365-15.235,40.521-22.758,58.859c-7.513,18.348-14.608,34.858-20.219,47.919c-3.845,8.955-7.753,17.638-11.703,26.028  c-26.101,8.161-47.041,15.945-70.06,25.642c-21.211,8.934-40.333,25.213-53.227,43.729c7.858,13.239,16.875,25.704,26.927,37.251  c5.684-15.182,22.371-33.99,42.517-42.475c8.673-3.647,17.053-7.022,25.589-10.25c-20.386,34.565-40.03,58.65-55.139,66.581  c10.23,10.156,21.305,19.456,33.123,27.773c30.668-24.221,58.911-71.325,79.935-113.57c20.689-6.081,45.066-12.643,76.068-20.616  c17.627-4.535,37.47-7.565,57.616-9.185c1.254,1.296,2.476,2.539,3.647,3.72c0.846,0.836,85.316,83.393,139.744,69.851  c2.079-0.522,4.096-1.16,6.04-1.933c12.121-18.965,21.817-39.633,28.651-61.576C498.315,325.025,494.365,318.369,488.722,312.455z   M231.982,127.028c-17.303-41.357-18.474-68.368-14.012-79.14c1.128-2.717,2.529-6.102,11.442-6.102  c6.405,0,7.701,1.975,8.568,3.281C240.831,49.403,247.916,67.344,231.982,127.028z M254.384,290.805  c-15.82,4.065-29.978,7.784-42.841,11.264c11.118-25.997,21.295-50.657,30.281-73.853c10.982,15.067,22.716,29.017,34.722,41.117  c1.693,2.079,6.259,7.649,12.236,14.743C275.96,285.967,264.278,288.266,254.384,290.805z M460.133,348.995  c-1.682,5.444-3.385,5.872-4.409,6.123c-13.197,3.26-44.001-13.908-70.353-33.573c34.502,2.33,62.986,9.122,73.132,19.749  C460.73,343.635,461.314,345.15,460.133,348.995z" data-original="#F8FAF9" class="" data-old_color="#ffffff"/></g> </svg>
