<?xml version="1.0"?>
<svg xmlns="http://www.w3.org/2000/svg" height="512px" viewBox="0 0 512 512" width="512px" class=""><g><path d="m456.835938 0h-401.667969c-30.421875 0-55.167969 24.746094-55.167969 55.167969v401.667969c0 30.417968 24.746094 55.164062 55.167969 55.164062h401.667969c30.417968 0 55.164062-24.746094 55.164062-55.164062v-401.667969c0-30.421875-24.746094-55.167969-55.164062-55.167969zm0 0" fill="#265c76" data-original="#265C76" class="active-path" style="fill:#1D4659" data-old_color="#265C76"/><path d="m456.835938 0h-200.835938v512h200.835938c30.417968 0 55.164062-24.746094 55.164062-55.164062v-401.667969c0-30.421875-24.746094-55.167969-55.164062-55.167969zm0 0" fill="#1d4659" data-original="#1D4659" class="" style="fill:#1D4659" data-old_color="#44DAEB"/><path d="m236.683594 283.257812c-14.34375-5.410156-18.824219-20.980468-14.742188-32.328124 1.992188-5.574219 5.820313-9.953126 11.375-13.011719 3.878906-2.136719 6.617188-5.875 7.476563-10.21875.863281-4.34375-.238281-8.847657-3.007813-12.300781-12.09375-15.085938-29.527344-24.09375-46.636718-24.09375-11.703126 0-19.960938 3.132812-25.988282 5.421874-4.167968 1.582032-6.453125 2.40625-8.78125 2.40625-2.984375 0-6.375-1.214843-10.667968-2.753906-6.308594-2.261718-14.15625-5.074218-24.214844-5.074218-19.382813 0-38.84375 11.441406-50.804688 29.882812-4.492187 6.960938-7.609375 15.390625-9.269531 25.070312-4.460937 26.152344 2.941406 57.105469 19.8125 82.820313 6.207031 9.433594 20.738281 31.527344 43.714844 31.726563l.414062.003906c8.613281 0 14.4375-2.605469 19.121094-4.695313 4.023437-1.796875 6.683594-2.984375 12.148437-3.011719l.191407-.003906c5.238281 0 7.765625 1.160156 11.585937 2.914063 4.382813 2.007812 10.382813 4.761719 19.03125 4.761719h.382813c22.628906-.199219 37.261719-22.441407 44.316406-33.171876 6.058594-9.269531 8.476563-14.238281 12.933594-24.171874 1.695312-3.773438 1.753906-8.082032.164062-11.902344-1.589843-3.816406-4.683593-6.8125-8.554687-8.269532zm0 0" fill="#c5e1e6" data-original="#C5E1E6" class="" style="fill:#44DAEB" data-old_color="#44daeb"/><path d="m140.988281 169.585938c2.8125 2.363281 6.242188 3.519531 9.652344 3.519531 4.269531 0 8.515625-1.816407 11.480469-5.339844l18.445312-21.917969c5.335938-6.339844 4.523438-15.800781-1.816406-21.136718-6.339844-5.332032-15.800781-4.519532-21.136719 1.820312l-18.441406 21.914062c-5.335937 6.339844-4.523437 15.804688 1.816406 21.140626zm0 0" fill="#c5e1e6" data-original="#C5E1E6" class="" style="fill:#44DAEB" data-old_color="#44daeb"/><g fill="#8db9c4"><path d="m327.769531 269.367188c5.644531 0 8.601563-5.738282 8.601563-11.40625 0-5.527344-3.015625-11.40625-8.601563-11.40625h-21.613281v-32.417969c0-6.265625-7.632812-10.003907-15.007812-10.003907-7.121094 0-14.804688 3.824219-14.804688 10.003907v97.054687c0 22.839844 13.125 34.417969 39.019531 34.417969h7.804688c8.933593 0 13.003906-6.742187 13.003906-13.003906 0-6.367188-4.46875-12.808594-13.003906-12.808594h-7.804688c-7.230469 0-9.207031-1.851563-9.207031-8.605469v-41.824218zm0 0" data-original="#000000" class="" style="fill:#44DAEB" data-old_color="#44daeb"/><path d="m419.640625 245.355469c-4.507813 0-7.804687 2.167969-9.273437 6.082031l-20.339844 52.773438-20.359375-53.195313c-1.417969-3.542969-4.953125-5.660156-9.464844-5.660156-7.554687 0-19.207031 5.585937-19.207031 13.007812 0 1.148438.390625 3.261719 1.242187 4.578125l34.347657 79.070313c1.585937 3.628906 6.609374 5.800781 13.4375 5.800781 5.441406 0 11.761718-1.78125 13.640624-5.808594l34.199219-79.195312c.6875-1.398438.984375-2.671875.984375-4.246094.003906-8.082031-13.507812-13.207031-19.207031-13.207031zm0 0" data-original="#000000" class="" style="fill:#44DAEB" data-old_color="#44daeb"/></g></g> </svg>
