<?xml version="1.0"?>
<svg xmlns="http://www.w3.org/2000/svg" xmlns:xlink="http://www.w3.org/1999/xlink" version="1.1" id="Capa_1" x="0px" y="0px" viewBox="0 0 512 512" style="enable-background:new 0 0 512 512;" xml:space="preserve" width="512px" height="512px" class=""><g><path style="fill:#32FA00" d="M512,512H0V0h512V512z" data-original="#DAFF73" class="" data-old_color="#32fa00"/><path style="fill:#32FA00" d="M512,512H256V0h256V512z" data-original="#AFFC00" class="" data-old_color="#32fa00"/><path style="fill:#012100" d="M482,482H30V30h452V482z" data-original="#5D7F00" class="" data-old_color="#5D7F00"/><path style="fill:#012100" d="M482,482H256V30h226V482z" data-original="#506600" class="active-path" data-old_color="#506600"/><g>
	<path style="fill:#32FA00" d="M411.119,226.24h30.479L389.039,352h-26.4l-21.6-55.2l-21.36,55.2h-26.4L240.96,226.24h30.24   l37.439,95.52l15.359-40.8l-22.08-54.48h25.92l13.201,38.64l13.439-38.64h25.92l-21.84,54.48l15.12,40.8L411.119,226.24z" data-original="#DAFF73" class="" data-old_color="#32fa00"/>
	<path style="fill:#32FA00" d="M86.401,352V181.6h61.921c49.928,0,84,33.15,84,84.96c0,41.44-24.572,85.44-84,85.44H86.401z    M198.961,266.56c0-34.31-20.461-55.92-50.639-55.92h-28.801v112.32h28.801C178.75,322.96,198.961,298.75,198.961,266.56z" data-original="#DAFF73" class="" data-old_color="#32fa00"/>
</g><polygon style="fill:#32FA00" points="411.119,226.24 373.679,321.76 358.559,280.96 380.398,226.48 354.479,226.48   341.039,265.12 327.838,226.48 301.918,226.48 323.998,280.96 308.639,321.76 271.199,226.24 256,226.24 256,262.394 293.278,352   319.679,352 341.039,296.8 362.639,352 389.039,352 441.599,226.24 " data-original="#AFFC00" class="" data-old_color="#32fa00"/></g> </svg>
