<?xml version="1.0"?>
<svg xmlns="http://www.w3.org/2000/svg" xmlns:xlink="http://www.w3.org/1999/xlink" version="1.1" id="Layer_1" x="0px" y="0px" viewBox="0 0 512 512" style="enable-background:new 0 0 512 512;" xml:space="preserve" width="512px" height="512px" class=""><g><circle style="fill:#4E85E5" cx="256" cy="256" r="256" data-original="#4E85E5" class=""/><path style="fill:#4E85E5" d="M402.968,170.406l-139.509-8.647h-14.919l-81.456,56.713l-54.532,59.428l54.532,65.186  l159.253,159.125c101.04-28.81,176.568-118.132,184.896-226.28L402.968,170.406z" data-original="#326CBF" class="" data-old_color="#326CBF"/><path style="fill:#FFFFFF;" d="M245.457,274.387l-75.111-48.437c-2.438-1.572-5.608-1.405-7.868,0.412L111.98,267  c-3.577,2.877-3.286,8.413,0.572,10.902l75.111,48.437c2.438,1.572,5.608,1.405,7.868-0.412l50.498-40.638  C249.606,282.41,249.315,276.875,245.457,274.387z" data-original="#FFFFFF" class=""/><path style="fill:#FFFFFF" d="M265.971,285.289l50.498,40.636c2.26,1.819,5.43,1.984,7.868,0.412l75.111-48.437  c3.858-2.488,4.149-8.023,0.572-10.902l-50.498-40.636c-2.26-1.819-5.43-1.984-7.868-0.412l-75.111,48.437  C262.685,276.875,262.394,282.41,265.971,285.289z" data-original="#D1D1D1" class="active-path" data-old_color="#ffffff"/><path style="fill:#FFFFFF;" d="M246.029,158.087l-50.498-40.636c-2.26-1.819-5.43-1.984-7.868-0.412l-75.111,48.437  c-3.858,2.488-4.149,8.023-0.572,10.902l50.498,40.636c2.26,1.819,5.43,1.984,7.868,0.412l75.111-48.437  C249.315,166.5,249.606,160.965,246.029,158.087z" data-original="#FFFFFF" class=""/><path style="fill:#FFFFFF" d="M399.448,165.474l-75.111-48.437c-2.438-1.572-5.608-1.405-7.868,0.412l-50.498,40.636  c-3.577,2.877-3.286,8.413,0.572,10.902l75.112,48.437c2.438,1.572,5.608,1.405,7.868-0.412l50.498-40.636  C403.597,173.497,403.306,167.962,399.448,165.474z" data-original="#D1D1D1" class="active-path" data-old_color="#ffffff"/><path style="fill:#FFFFFF;" d="M252.319,292.423l-56.551,45.111c-2.05,1.634-4.913,1.779-7.116,0.359l-13.938-8.988  c-4.063-2.62-9.416,0.297-9.416,5.132v4.86c0,2.134,1.115,4.115,2.941,5.222l84.192,51.036c1.946,1.179,4.386,1.179,6.33,0  l84.192-51.036c1.826-1.107,2.941-3.086,2.941-5.222v-4.337c0-4.834-5.353-7.752-9.416-5.132l-13.121,8.461  c-2.207,1.424-5.077,1.276-7.127-0.365l-56.284-45.089C257.717,290.647,254.55,290.644,252.319,292.423z" data-original="#FFFFFF" class=""/><path style="fill:#FFFFFF" d="M336.479,329.425l-13.121,8.461c-2.207,1.422-5.077,1.276-7.127-0.367l-56.284-45.089  c-0.991-0.795-2.172-1.215-3.37-1.303v104.82c0.76-0.124,1.503-0.383,2.186-0.796l84.192-51.036  c1.826-1.107,2.941-3.086,2.941-5.222v-4.337C345.893,329.721,340.54,326.804,336.479,329.425z" data-original="#D1D1D1" class="active-path" data-old_color="#ffffff"/></g> </svg>
