<?xml version="1.0"?>
<svg xmlns="http://www.w3.org/2000/svg" xmlns:xlink="http://www.w3.org/1999/xlink" version="1.1" id="Capa_1" x="0px" y="0px" viewBox="0 0 512.007 512.007" style="enable-background:new 0 0 512.007 512.007;" xml:space="preserve" width="512px" height="512px" class=""><g><circle style="fill:#352C99" cx="256.003" cy="256.003" r="256.003" data-original="#484EA1" class="" data-old_color="#352c99"/><path style="fill:#352C99" d="M256,79.782L256,79.782l-40.348,128.388l-134.573-1.3l101.698,101.698l-34.884,103.933l0,0  l99.333,99.333c2.914,0.099,5.835,0.166,8.773,0.166c131.176,0,239.29-98.666,254.222-225.83l-79.301-79.301l-47.375,0.458  L256,79.782z" data-original="#343A8C" class="" data-old_color="#352c99"/><polygon style="fill:#FFFFFF" points="256,79.782 296.349,208.17 430.921,206.869 321.284,284.916 364.107,412.501 256,332.349   147.893,412.501 190.716,284.916 81.08,206.869 215.652,208.17 " data-original="#FFFFFF" class="active-path"/><g>
	<rect x="219.871" y="229.483" style="fill:#352C99" width="59.38" height="53.037" data-original="#484EA1" class="" data-old_color="#352c99"/>
	<rect x="210.14" y="238.563" style="fill:#352C99" width="6.702" height="12.538" data-original="#484EA1" class="" data-old_color="#352c99"/>
	<polygon style="fill:#352C99" points="282.483,248.562 282.483,263.438 301.86,276.249 301.86,235.751  " data-original="#484EA1" class="" data-old_color="#352c99"/>
</g></g> </svg>
