<?xml version="1.0" encoding="iso-8859-1"?>
<!-- Generator: Adobe Illustrator 19.0.0, SVG Export Plug-In . SVG Version: 6.00 Build 0)  -->
<svg version="1.1" id="Layer_1" xmlns="http://www.w3.org/2000/svg" xmlns:xlink="http://www.w3.org/1999/xlink" x="0px" y="0px"
	 viewBox="0 0 225.031 225.031" style="enable-background:new 0 0 225.031 225.031;" xml:space="preserve">
<g>
	<path style="fill:#8CC63F;" d="M184.5,218.062c0.825,2.429-0.458,5.729-3.804,5.867c-13.109,0.458-28.326,2.429-41.205-0.367
		c-0.046,0-0.092-0.046-0.137-0.046c-1.008,0.137-2.063-0.137-2.933-1.238c-10.175-12.834-17.784-27.959-25.347-42.489
		c-7.425-14.255-15.721-29.105-18.838-45.01c-0.917-0.458-1.558-1.421-1.054-2.658c18.059-45.697,44.643-88.094,70.86-129.437
		c1.467-2.338,3.942-2.704,5.913-1.925c5.683-1.1,11.642-0.733,17.371-0.55c6.142,0.183,12.788-0.458,18.655,1.283
		c0.825,0.275,1.421,0.733,1.833,1.329c2.888,0.779,5.088,3.804,2.933,7.059c-26.217,39.051-47.256,80.211-69.99,121.187
		c0.229,0.779,0.504,1.558,0.688,2.383c7.563,11.871,13.109,25.255,19.663,37.63c7.792,14.759,16.225,29.105,24.98,43.314
		C184.913,215.679,184.913,216.962,184.5,218.062z"/>
	<path style="fill:#006837;" d="M44.246,72.354c-5.867-6.967-11.78-14.025-16.5-21.817c-0.825-1.329-0.504-2.612,0.321-3.483
		c0.275-1.237,1.238-2.292,2.658-2.154c6.646,0.642,13.2,1.467,19.892,1.65c4.95,0.092,10.313-0.596,15.309,0.092
		c1.054-1.467,3.163-2.108,4.767-0.458c11.229,11.321,20.763,25.163,30.068,38.089c1.146,1.604,0.733,3.392-0.367,4.629
		c-8.571,20.442-21.726,40.701-34.468,59.402c-1.558,2.888-3.163,5.729-4.858,8.525c-0.458,0.871-1.238,1.283-2.063,1.421
		c-0.688,0.596-1.558,1.008-2.704,1.054c-12.605,0.275-25.897,0.275-38.364-1.65c-2.383-0.413-2.888-2.338-2.292-4.079
		c-0.137-0.596-0.092-1.238,0.183-1.833c1.742-3.529,3.575-7.059,5.5-10.542c8.571-19.892,17.784-40.289,29.334-58.577
		c-1.604-2.521-3.163-5.042-4.675-7.471C45.392,74.187,44.842,73.27,44.246,72.354z"/>
</g>
<g>
</g>
<g>
</g>
<g>
</g>
<g>
</g>
<g>
</g>
<g>
</g>
<g>
</g>
<g>
</g>
<g>
</g>
<g>
</g>
<g>
</g>
<g>
</g>
<g>
</g>
<g>
</g>
<g>
</g>
</svg>
