<?xml version="1.0"?>
<svg xmlns="http://www.w3.org/2000/svg" xmlns:xlink="http://www.w3.org/1999/xlink" version="1.1" id="Capa_1" x="0px" y="0px" width="512px" height="512px" viewBox="0 0 611.996 611.996" style="enable-background:new 0 0 611.996 611.996;" xml:space="preserve" class=""><g><g>
	<g>
		<g id="group-6svg">
			<path id="path-1_37_" d="M399.949,611.996c-17.435,0-33.481-4.912-47.673-14.59l-0.864-0.621     c-0.359-0.272-12.115-8.999-32.103-8.999c-12.513,0-25.608,3.456-38.946,10.271c-4.048,2.476-22.725,12.988-46.575,12.988     c-19.561,0-37.394-6.775-53.003-20.143C156.07,569.74,74.791,490.421,66.734,358.285c-3.669-60.167,15.939-117.76,53.788-158.007     c34.335-36.519,79.833-52.896,123.303-44.198c0.99,0.146,33.296,5.562,64.894,23.55c16.765-8.397,58.399-26.608,103.733-26.608     c54.157,0,96.258,26.268,121.739,75.95l5.776,11.27l-10.349,7.3c-0.543,0.378-56.166,40.392-55.963,88.784     c0.107,26.384,17.23,51.672,50.915,75.164c10.553,7.348,17.823,18.773,20.065,31.461     c10.843,39.616-63.942,136.524-108.751,161.666l-1.098,0.563C433.255,605.881,419.237,611.996,399.949,611.996z M368.973,573.535     c9.202,6.184,19.618,9.31,30.976,9.31c11.406,0,20.279-3.203,22.405-4.038c46.178-26.481,98.83-111.557,94.268-127.972     l-0.572-2.35c-0.825-5.29-3.786-10.057-8.125-13.085c-41.975-29.268-63.302-62.604-63.39-99.093     c-0.126-48.916,38.694-88.017,57.904-104.374c-20.54-33.024-50.76-49.76-89.986-49.76c-49.926,0-96.462,26.53-96.929,26.802     l-7.659,4.426l-7.465-4.766c-28.704-18.347-61.438-23.841-61.768-23.89c-6.397-1.272-12.377-1.864-18.318-1.864     c-28.024,0-55.934,13.27-78.581,37.363c-31.897,33.917-49.06,84.852-45.935,136.263C103.156,477.2,177.203,549.48,199.725,568.76     c10.183,8.717,21.647,13.144,34.063,13.144c17.58,0,31.306-8.649,31.432-8.727l1.282-0.758     c17.677-9.144,35.441-13.774,52.808-13.774C347.539,558.645,365.274,570.75,368.973,573.535z" data-original="#000000" class="active-path" data-old_color="#007bff" fill="#007bff"/>
			<path id="path-2_25_" d="M306.312,156.042c-3.203,0-6.358-1.058-8.931-3.058c-3.446-2.679-5.514-6.766-5.621-11.125     c-0.116-4.067-1.301-100.199,118.547-141.077c4.184-1.427,8.775-0.883,12.503,1.476c3.718,2.359,6.174,6.281,6.669,10.668     c0.136,1.126,11.231,112.799-119.925,142.747C308.477,155.916,307.389,156.042,306.312,156.042z M399.667,36.34     c-53.061,24.492-70.417,62.118-76.076,85.037C380.941,101.186,395.988,60.832,399.667,36.34z" data-original="#000000" class="active-path" data-old_color="#007bff" fill="#007bff"/>
		</g>
	</g>
	<g>
	</g>
	<g>
	</g>
	<g>
	</g>
	<g>
	</g>
	<g>
	</g>
	<g>
	</g>
	<g>
	</g>
	<g>
	</g>
	<g>
	</g>
	<g>
	</g>
	<g>
	</g>
	<g>
	</g>
	<g>
	</g>
	<g>
	</g>
	<g>
	</g>
</g></g> </svg>
